<svg xmlns="http://www.w3.org/2000/svg" xmlns:xlink="http://www.w3.org/1999/xlink" width="799" height="282" version="1.1" viewBox="0 0 799 282"><title>Group 8</title><desc>Created with Sketch.</desc><defs><polygon id="path-1" points=".355 .275 132.426 .275 132.426 150.537 .355 150.537"/><polygon id="path-3" points="0 281.093 798.642 281.093 798.642 .534 0 .534"/></defs><g id="Symbols" fill="none" fill-rule="evenodd" stroke="none" stroke-width="1"><g id="Logo" transform="translate(-2.000000, -1.000000)"><g id="Group-9" transform="translate(2.000000, 1.000000)"><path id="Fill-1" fill="#231F20" d="M509.856264,133 L444,280 L460.720027,280 L477.857022,241.425946 L556.519589,241.425946 L573.450164,280 L591,280 L525.139607,133 L509.856264,133 Z M517.291516,152.182795 L550.116438,226.62088 L484.256045,226.62088 L517.291516,152.182795 Z"/><g id="Group-8"><g id="Group-4" transform="translate(609.406489, 130.556165)"><mask id="mask-2" fill="#fff"><use xlink:href="#path-1"/></mask><path id="Fill-2" fill="#231F20" d="M74.163526,150.537917 C28.549243,150.537917 0.354865275,117.329768 0.354865275,75.6141567 C0.354865275,35.5585383 29.5897942,0.275398233 73.1271204,0.275398233 C97.590438,0.275398233 112.726105,7.33036625 127.239929,19.5769607 L116.664447,32.0269043 C105.471266,22.2744485 93.034399,15.4269795 72.505277,15.4269795 C40.372558,15.4269795 17.3560626,42.6135063 17.3560626,75.1991586 C17.3560626,110.0673 39.5392879,135.801334 74.7853693,135.801334 C91.3720044,135.801334 106.719098,129.364713 116.664447,121.27225 L116.664447,85.1591134 L72.505277,85.1591134 L72.505277,70.4225302 L132.426103,70.4225302 L132.426103,128.327218 C118.948684,140.366313 98.6268436,150.537917 74.163526,150.537917" mask="url(#mask-2)"/></g><mask id="mask-4" fill="#fff"><use xlink:href="#path-3"/></mask><polygon id="Fill-5" fill="#231F20" points="782.267 278.603 798.642 278.603 798.642 133.325 782.267 133.325" mask="url(#mask-4)"/><path id="Fill-7" fill="#C59454" d="M183.034617,237.488985 C196.167949,198.964709 224.85151,167.673851 261.498812,151.198426 L324.251097,237.488985 L183.034617,237.488985 Z M201.996694,0.53335882 L0.00124368671,278.29575 L50.0637794,278.29575 L201.996694,69.3773967 L237.263503,117.869927 C178.354209,147.704142 137.312548,208.136168 134.870776,278.29575 L403.992144,278.29575 L201.996694,0.53335882 Z" mask="url(#mask-4)"/></g></g></g></g></svg>